<mxfile host="Electron" modified="2024-01-08T05:43:33.394Z" agent="Mozilla/5.0 (X11; Linux x86_64) AppleWebKit/537.36 (KHTML, like Gecko) draw.io/21.6.5 Chrome/114.0.5735.243 Electron/25.3.1 Safari/537.36" etag="wQURIH3diJv-LvvmpaA1" version="21.6.5" type="device">
  <diagram name="Page-1" id="lv2RBA-2qfxnkMvO_x3A">
    <mxGraphModel dx="1224" dy="1267" grid="1" gridSize="10" guides="1" tooltips="1" connect="1" arrows="1" fold="1" page="1" pageScale="1" pageWidth="850" pageHeight="1100" math="0" shadow="0">
      <root>
        <mxCell id="0" />
        <mxCell id="1" parent="0" />
        <mxCell id="4REqOIB7tcGAyymllORO-194" value="" style="group" parent="1" vertex="1" connectable="0">
          <mxGeometry x="1001.69" y="349" width="510.30999999999995" height="117" as="geometry" />
        </mxCell>
        <mxCell id="MEt0MIwIxQcFvyBTdbw6-34" style="edgeStyle=orthogonalEdgeStyle;shape=connector;curved=0;rounded=0;orthogonalLoop=1;jettySize=auto;html=1;exitX=0;exitY=0.5;exitDx=0;exitDy=0;labelBackgroundColor=default;strokeColor=#666666;strokeWidth=3;align=center;verticalAlign=middle;fontFamily=Helvetica;fontSize=11;fontColor=default;endArrow=none;endFill=0;startArrow=openThin;startFill=0;" parent="4REqOIB7tcGAyymllORO-194" source="MEt0MIwIxQcFvyBTdbw6-35" edge="1">
          <mxGeometry relative="1" as="geometry">
            <mxPoint y="25" as="targetPoint" />
          </mxGeometry>
        </mxCell>
        <mxCell id="MEt0MIwIxQcFvyBTdbw6-35" value="&lt;b style=&quot;border-color: var(--border-color);&quot;&gt;&lt;font style=&quot;border-color: var(--border-color);&quot; color=&quot;#666666&quot;&gt;application:&lt;/font&gt;&lt;/b&gt;" style="rounded=1;whiteSpace=wrap;html=1;strokeColor=#666666;fontFamily=Helvetica;fontSize=12;fontColor=#143642;fillColor=#ffffff;arcSize=50;fontStyle=0;shadow=0;labelBackgroundColor=none;align=center;verticalAlign=middle;strokeWidth=3;" parent="4REqOIB7tcGAyymllORO-194" vertex="1">
          <mxGeometry x="80.93999999999983" y="10" width="78.76" height="30" as="geometry" />
        </mxCell>
        <mxCell id="MEt0MIwIxQcFvyBTdbw6-36" style="edgeStyle=orthogonalEdgeStyle;shape=connector;curved=0;rounded=0;orthogonalLoop=1;jettySize=auto;html=1;exitX=1;exitY=0.5;exitDx=0;exitDy=0;labelBackgroundColor=default;strokeColor=#666666;strokeWidth=3;align=center;verticalAlign=middle;fontFamily=Helvetica;fontSize=11;fontColor=default;endArrow=openThin;endFill=0;" parent="4REqOIB7tcGAyymllORO-194" source="MEt0MIwIxQcFvyBTdbw6-46" edge="1">
          <mxGeometry relative="1" as="geometry">
            <mxPoint x="510.30999999999995" y="25" as="targetPoint" />
            <mxPoint x="496.31000000000085" y="25" as="sourcePoint" />
            <Array as="points" />
          </mxGeometry>
        </mxCell>
        <mxCell id="MEt0MIwIxQcFvyBTdbw6-37" value="&lt;b style=&quot;border-color: var(--border-color); color: rgb(51, 51, 51);&quot;&gt;&lt;font style=&quot;border-color: var(--border-color);&quot; color=&quot;#666666&quot;&gt;name:&lt;/font&gt;&lt;/b&gt;" style="rounded=1;whiteSpace=wrap;html=1;strokeColor=#666666;fontFamily=Helvetica;fontSize=12;fontColor=#143642;fillColor=#ffffff;arcSize=50;fontStyle=0;shadow=0;labelBackgroundColor=none;verticalAlign=middle;strokeWidth=3;" parent="4REqOIB7tcGAyymllORO-194" vertex="1">
          <mxGeometry x="179" y="10" width="55.31" height="30" as="geometry" />
        </mxCell>
        <mxCell id="MEt0MIwIxQcFvyBTdbw6-38" style="edgeStyle=orthogonalEdgeStyle;shape=connector;curved=0;rounded=0;orthogonalLoop=1;jettySize=auto;html=1;exitX=1;exitY=0.5;exitDx=0;exitDy=0;labelBackgroundColor=default;strokeColor=#666666;strokeWidth=3;align=center;verticalAlign=middle;fontFamily=Helvetica;fontSize=11;fontColor=default;endArrow=openThin;endFill=0;" parent="4REqOIB7tcGAyymllORO-194" source="MEt0MIwIxQcFvyBTdbw6-35" target="MEt0MIwIxQcFvyBTdbw6-37" edge="1">
          <mxGeometry relative="1" as="geometry">
            <Array as="points">
              <mxPoint x="190.30999999999995" y="25" />
              <mxPoint x="190.30999999999995" y="25" />
            </Array>
          </mxGeometry>
        </mxCell>
        <mxCell id="MEt0MIwIxQcFvyBTdbw6-39" value="&lt;font size=&quot;1&quot; color=&quot;#666666&quot;&gt;&lt;b style=&quot;font-size: 12px;&quot;&gt;Application&lt;/b&gt;&lt;/font&gt;" style="text;html=1;strokeColor=none;fillColor=none;align=center;verticalAlign=middle;whiteSpace=wrap;rounded=0;fontSize=11;fontFamily=Helvetica;fontColor=#333333;" parent="4REqOIB7tcGAyymllORO-194" vertex="1">
          <mxGeometry x="3.699999999999932" width="60" height="30" as="geometry" />
        </mxCell>
        <mxCell id="MEt0MIwIxQcFvyBTdbw6-42" value="" style="edgeStyle=orthogonalEdgeStyle;shape=connector;curved=0;rounded=0;orthogonalLoop=1;jettySize=auto;html=1;exitX=1;exitY=0.5;exitDx=0;exitDy=0;labelBackgroundColor=default;strokeColor=#666666;strokeWidth=3;align=center;verticalAlign=middle;fontFamily=Helvetica;fontSize=11;fontColor=default;endArrow=openThin;endFill=0;" parent="4REqOIB7tcGAyymllORO-194" source="MEt0MIwIxQcFvyBTdbw6-37" target="MEt0MIwIxQcFvyBTdbw6-41" edge="1">
          <mxGeometry relative="1" as="geometry">
            <mxPoint x="510" y="25" as="targetPoint" />
            <mxPoint x="250.30999999999995" y="25" as="sourcePoint" />
            <Array as="points">
              <mxPoint x="250.30999999999995" y="25" />
              <mxPoint x="250.30999999999995" y="25" />
            </Array>
          </mxGeometry>
        </mxCell>
        <mxCell id="MEt0MIwIxQcFvyBTdbw6-45" style="edgeStyle=orthogonalEdgeStyle;shape=connector;curved=0;rounded=1;orthogonalLoop=1;jettySize=auto;html=1;labelBackgroundColor=default;strokeColor=#666666;strokeWidth=3;align=center;verticalAlign=middle;fontFamily=Helvetica;fontSize=11;fontColor=default;endArrow=none;endFill=0;" parent="4REqOIB7tcGAyymllORO-194" source="MEt0MIwIxQcFvyBTdbw6-41" edge="1">
          <mxGeometry relative="1" as="geometry">
            <mxPoint x="500.30999999999995" y="25" as="targetPoint" />
            <Array as="points">
              <mxPoint x="313.30999999999995" y="25" />
              <mxPoint x="313.30999999999995" y="50" />
              <mxPoint x="490.30999999999995" y="50" />
              <mxPoint x="490.30999999999995" y="25" />
            </Array>
          </mxGeometry>
        </mxCell>
        <mxCell id="MEt0MIwIxQcFvyBTdbw6-41" value="&lt;b style=&quot;border-color: var(--border-color); color: rgb(51, 51, 51);&quot;&gt;&lt;font style=&quot;border-color: var(--border-color);&quot; color=&quot;#666666&quot;&gt;String&lt;/font&gt;&lt;/b&gt;" style="ellipse;whiteSpace=wrap;html=1;rounded=1;labelBackgroundColor=none;strokeColor=#666666;fontFamily=Helvetica;fontSize=12;fontColor=default;fillColor=default;container=0;strokeWidth=3;" parent="4REqOIB7tcGAyymllORO-194" vertex="1">
          <mxGeometry x="252.48000000000002" y="10" width="50.83" height="30" as="geometry" />
        </mxCell>
        <mxCell id="MEt0MIwIxQcFvyBTdbw6-44" value="" style="edgeStyle=orthogonalEdgeStyle;shape=connector;curved=0;rounded=0;orthogonalLoop=1;jettySize=auto;html=1;exitX=1;exitY=0.5;exitDx=0;exitDy=0;labelBackgroundColor=default;strokeColor=#666666;strokeWidth=3;align=center;verticalAlign=middle;fontFamily=Helvetica;fontSize=11;fontColor=default;endArrow=openThin;endFill=0;" parent="4REqOIB7tcGAyymllORO-194" source="MEt0MIwIxQcFvyBTdbw6-41" target="MEt0MIwIxQcFvyBTdbw6-43" edge="1">
          <mxGeometry relative="1" as="geometry">
            <mxPoint x="510" y="25" as="targetPoint" />
            <mxPoint x="320.30999999999995" y="25" as="sourcePoint" />
            <Array as="points">
              <mxPoint x="320.30999999999995" y="25" />
              <mxPoint x="320.30999999999995" y="25" />
            </Array>
          </mxGeometry>
        </mxCell>
        <mxCell id="MEt0MIwIxQcFvyBTdbw6-43" value="&lt;b style=&quot;border-color: var(--border-color); color: rgb(51, 51, 51);&quot;&gt;&lt;font style=&quot;border-color: var(--border-color);&quot; color=&quot;#666666&quot;&gt;description:&lt;/font&gt;&lt;/b&gt;" style="rounded=1;whiteSpace=wrap;html=1;strokeColor=#666666;fontFamily=Helvetica;fontSize=12;fontColor=#143642;fillColor=#ffffff;arcSize=50;fontStyle=0;shadow=0;labelBackgroundColor=none;verticalAlign=middle;strokeWidth=3;" parent="4REqOIB7tcGAyymllORO-194" vertex="1">
          <mxGeometry x="328.30999999999995" y="10" width="85" height="30" as="geometry" />
        </mxCell>
        <mxCell id="MEt0MIwIxQcFvyBTdbw6-47" value="" style="edgeStyle=orthogonalEdgeStyle;shape=connector;curved=0;rounded=0;orthogonalLoop=1;jettySize=auto;html=1;exitX=1;exitY=0.5;exitDx=0;exitDy=0;labelBackgroundColor=default;strokeColor=#666666;strokeWidth=3;align=center;verticalAlign=middle;fontFamily=Helvetica;fontSize=11;fontColor=default;endArrow=openThin;endFill=0;" parent="4REqOIB7tcGAyymllORO-194" source="MEt0MIwIxQcFvyBTdbw6-43" target="MEt0MIwIxQcFvyBTdbw6-46" edge="1">
          <mxGeometry relative="1" as="geometry">
            <mxPoint x="510" y="25" as="targetPoint" />
            <mxPoint x="430.30999999999995" y="25" as="sourcePoint" />
            <Array as="points">
              <mxPoint x="430.30999999999995" y="25" />
              <mxPoint x="430.30999999999995" y="25" />
            </Array>
          </mxGeometry>
        </mxCell>
        <mxCell id="MEt0MIwIxQcFvyBTdbw6-46" value="&lt;b style=&quot;border-color: var(--border-color); color: rgb(51, 51, 51);&quot;&gt;&lt;font style=&quot;border-color: var(--border-color);&quot; color=&quot;#666666&quot;&gt;String&lt;/font&gt;&lt;/b&gt;" style="ellipse;whiteSpace=wrap;html=1;rounded=1;labelBackgroundColor=none;strokeColor=#666666;fontFamily=Helvetica;fontSize=12;fontColor=default;fillColor=default;container=0;strokeWidth=3;" parent="4REqOIB7tcGAyymllORO-194" vertex="1">
          <mxGeometry x="431.30999999999995" y="10" width="54" height="30" as="geometry" />
        </mxCell>
        <mxCell id="4REqOIB7tcGAyymllORO-35" value="" style="group" parent="4REqOIB7tcGAyymllORO-194" vertex="1" connectable="0">
          <mxGeometry x="68.30999999999995" y="67" width="371" height="50" as="geometry" />
        </mxCell>
        <mxCell id="4REqOIB7tcGAyymllORO-36" value="&lt;b style=&quot;border-color: var(--border-color); color: rgb(51, 51, 51); font-family: Helvetica; text-align: center;&quot;&gt;&lt;font style=&quot;border-color: var(--border-color);&quot; color=&quot;#666666&quot;&gt;&amp;nbsp; &amp;nbsp;Legend&lt;/font&gt;&lt;/b&gt;" style="text;html=1;align=left;verticalAlign=middle;whiteSpace=wrap;rounded=1;fontFamily=Courier New;perimeterSpacing=6;shadow=0;fillColor=#ffffff;fontColor=#143642;strokeColor=#666666;labelBackgroundColor=none;container=0;strokeWidth=3;" parent="4REqOIB7tcGAyymllORO-35" vertex="1">
          <mxGeometry width="371" height="50" as="geometry" />
        </mxCell>
        <mxCell id="4REqOIB7tcGAyymllORO-37" value="&lt;b style=&quot;border-color: var(--border-color); color: rgb(51, 51, 51);&quot;&gt;&lt;font style=&quot;border-color: var(--border-color);&quot; color=&quot;#666666&quot;&gt;expr&lt;/font&gt;&lt;/b&gt;" style="ellipse;whiteSpace=wrap;html=1;rounded=1;labelBackgroundColor=none;strokeColor=#666666;fontFamily=Helvetica;fontSize=12;fontColor=default;fillColor=default;container=0;strokeWidth=3;" parent="4REqOIB7tcGAyymllORO-35" vertex="1">
          <mxGeometry x="182" y="10" width="70" height="30" as="geometry" />
        </mxCell>
        <mxCell id="4REqOIB7tcGAyymllORO-38" value="&lt;p&gt;&lt;b style=&quot;border-color: var(--border-color); color: rgb(51, 51, 51);&quot;&gt;&lt;font style=&quot;border-color: var(--border-color);&quot; color=&quot;#666666&quot;&gt;Keyword&lt;/font&gt;&lt;/b&gt;&lt;br&gt;&lt;/p&gt;" style="rounded=1;whiteSpace=wrap;html=1;arcSize=50;fontStyle=0;fillColor=#ffffff;strokeColor=#666666;labelBackgroundColor=none;fontColor=#143642;container=0;strokeWidth=3;" parent="4REqOIB7tcGAyymllORO-35" vertex="1">
          <mxGeometry x="67.99611111111108" y="10" width="107.5" height="30" as="geometry" />
        </mxCell>
        <mxCell id="4REqOIB7tcGAyymllORO-39" value="&lt;b style=&quot;border-color: var(--border-color); color: rgb(51, 51, 51);&quot;&gt;&lt;font style=&quot;border-color: var(--border-color);&quot; color=&quot;#666666&quot;&gt;Go To&lt;/font&gt;&lt;/b&gt;" style="rounded=1;whiteSpace=wrap;html=1;strokeColor=#666666;fontFamily=Helvetica;fontSize=12;fontColor=#143642;fillColor=#FFFFFF;arcSize=0;fontStyle=0;shadow=0;labelBackgroundColor=none;container=0;strokeWidth=3;" parent="4REqOIB7tcGAyymllORO-35" vertex="1">
          <mxGeometry x="261.0049999999999" y="10" width="95" height="30" as="geometry" />
        </mxCell>
      </root>
    </mxGraphModel>
  </diagram>
</mxfile>
